# xmcd
#
# Track frame offsets: 
#        150
#        4877
#        18861
#        30469
#        43382
#        59999
#        75907
#        84602
#        99646
#        114241
#        127602
#        142699
#        156007
#        168725
#        177944
#        203276
#        219767
#        233953
#        246867
#        260200
#        272363
#        282957
#        294533
#        305391
#        322437
#
# Disc length: 4504 seconds
#
# Revision: 0
# Processed by: cddbd v1.5.2PL0 Copyright (c) Steve Scherf et al.
# Submitted via: ExactAudioCopy v1.1
#
DISCID=58119619
DTITLE=Jimmy Martin and The Sunny Mountain Boys - Jimmy Martin and The Sun
DTITLE=ny Mountain Boys_Live '69 and '71
DYEAR=2015
DGENRE=Bluegrass
TTITLE0=Fire On The Mountain (Live 1969)
TTITLE1=Sunny Side Of The Mountain (Live 1969)
TTITLE2=Band Introductions (Live 1969)
TTITLE3=Tennessee (Live 1969)
TTITLE4=Traveling The Highway Home (Live 1969)
TTITLE5=Shackles And Chains (Live 1969)
TTITLE6=Big Country (Live 1969)
TTITLE7=My Heart Won't Let Me Forget (Live 1969)
TTITLE8=Freeborn Man (Live 1969)
TTITLE9=Widow Maker (Live 1969)
TTITLE10=Moonshine Hollow (Live 1969)
TTITLE11=Tennessee (Live 1971)
TTITLE12=Milwaukee Here I Come  (Live 1971)
TTITLE13=Arab Bounce  (Live 1971)
TTITLE14=Band Introductions
TTITLE15=When The Saviour Reached Down His Hands For Me  (Live 1971)
TTITLE16=Cacklin' Hen  (Live 1971)
TTITLE17=Freeeborn Man  (Live 1971)
TTITLE18=Sunny Side Of The Mountain  (Live 1971)
TTITLE19=I've Got My Future On Ice  (Live 1971)
TTITLE20=Bugle Call Rag aka Crow On The Banjo  (Live 1971)
TTITLE21=Traveling The Highway Home  (Live 1971)
TTITLE22=Lee Highway Blues  (Live 1971)
TTITLE23=Tennessee - Encore  (Live 1971)
TTITLE24=Little White Church  (Live 1971)
EXTD=
EXTT0=
EXTT1=
EXTT2=
EXTT3=
EXTT4=
EXTT5=
EXTT6=
EXTT7=
EXTT8=
EXTT9=
EXTT10=
EXTT11=
EXTT12=
EXTT13=
EXTT14=
EXTT15=
EXTT16=
EXTT17=
EXTT18=
EXTT19=
EXTT20=
EXTT21=
EXTT22=
EXTT23=
EXTT24=
PLAYORDER=
